<svg xmlns="http://www.w3.org/2000/svg" width="841.463" height="677.329" viewBox="0 0 841.463 677.329">
  <g id="Group_97" data-name="Group 97" transform="translate(-297.23 -146.168)">
    <g id="Group_2" data-name="Group 2" transform="translate(979.471 166.861)">
      <path id="Path_5" data-name="Path 5" d="M671.455,186.167,637,161.7a32.73,32.73,0,0,0-45.5,7.719l-24.464,34.465a32.724,32.724,0,0,0,7.72,45.493l34.465,24.464a32.719,32.719,0,0,0,45.491-7.72l24.466-34.462A32.726,32.726,0,0,0,671.455,186.167Z" transform="translate(-525.944 -150.449)" fill="#c14dff"/>
      <path id="Path_6" data-name="Path 6" d="M592.5,184.964l6.02-8.492,48.612,23.9-15.4,22.254L577.8,188.817" transform="translate(-497.152 -114.764)" fill="#b33fee"/>
      <path id="Path_7" data-name="Path 7" d="M616.28,174.253h0a20.038,20.038,0,0,0-27.86,4.726L551.8,230.56a20.042,20.042,0,0,0,4.728,27.86h0a20.04,20.04,0,0,0,27.86-4.726l36.618-51.581A20.044,20.044,0,0,0,616.28,174.253Z" transform="translate(-548.138 -124.888)" fill="#c14dff"/>
      <path id="Path_8" data-name="Path 8" d="M568.166,172.774s3.532,10.912-4.535,24.581,5.164,28.39,14.376,28.831c4.685-6.6,11.407-16.07,11.407-16.07l-2.2-21.369-2.181-12.222" transform="translate(-525.804 -121.123)" fill="#b33fee"/>
      <path id="Path_9" data-name="Path 9" d="M628.67,189.581h0a20.041,20.041,0,0,0-27.86,4.726l-17.976,25.328a20.039,20.039,0,0,0,4.726,27.86h0a20.044,20.044,0,0,0,27.86-4.729L633.4,217.441A20.038,20.038,0,0,0,628.67,189.581Z" transform="translate(-494.797 -98.535)" fill="#d563ff"/>
      <path id="Path_10" data-name="Path 10" d="M622.047,179.622h0a20.041,20.041,0,0,0-27.863,4.726L570.221,218.1a20.041,20.041,0,0,0,4.729,27.86h0a20.041,20.041,0,0,0,27.862-4.726l23.961-33.758A20.041,20.041,0,0,0,622.047,179.622Z" transform="translate(-516.477 -115.658)" fill="#ca5cff"/>
      <path id="Path_11" data-name="Path 11" d="M588.954,167.221c-9.215,19.569-9.726,34.443-9.726,34.443l4.756,7.268-15.447,21.761c3.877,2.077,10.047,3.529,18.044-.661,9.683-5.074,14.536-17.758,14.455-30.976l.266-.177S600.8,177.57,588.954,167.221Z" transform="translate(-513.07 -130.669)" fill="#b33fee" opacity="0.42"/>
      <g id="Group_1" data-name="Group 1" transform="translate(33.722)">
        <path id="Path_12" data-name="Path 12" d="M634.248,163.08c-26.916-19.1-56.016-4.514-67.643,5.871a18.168,18.168,0,0,0-3.948,22.06c3.38,6.363,7.236,15.257,8.421,18.06a23.1,23.1,0,0,1,1.338,14.732c.75.234-10.9,22.865,12.426,29.247,13.783,3.771,20.681-14.414,20.681-14.414,1.259-2.572,7.189-16.584.411-39.756a77.13,77.13,0,0,0-3.233-8.549,13.9,13.9,0,0,1,10.523,2.363,18.158,18.158,0,0,0,25.318-4.293C644.346,180.221,672.69,190.371,634.248,163.08Z" transform="translate(-560.539 -153.778)" fill="#c14dff"/>
      </g>
    </g>
    <path id="Path_13" data-name="Path 13" d="M594.351,200.321c21.66,14.4,31.843,37.165,22.745,50.855s-34.035,13.117-55.7-1.281-31.843-37.165-22.745-50.855S572.691,185.924,594.351,200.321Z" transform="translate(409.309 73.867)" fill="#3bfaff" opacity="0.61"/>
    <path id="Path_14" data-name="Path 14" d="M577.155,203.382c14.24,9.468,20.937,24.439,14.955,33.439s-22.375,8.622-36.621-.843-20.937-24.437-14.955-33.437S562.915,193.917,577.155,203.382Z" transform="translate(414.5 85.716)" fill="#3bfaff" opacity="0.42"/>
    <path id="Path_15" data-name="Path 15" d="M558.536,206.912c6.2,4.119,9.117,10.64,6.51,14.558s-9.743,3.755-15.945-.364-9.117-10.643-6.512-14.561S552.334,202.787,558.536,206.912Z" transform="translate(420.157 98.916)" fill="#3bfaff" opacity="0.42"/>
    <path id="Path_16" data-name="Path 16" d="M553.046,207.608c3.649,2.428,5.362,6.262,3.831,8.568s-5.732,2.211-9.384-.218-5.365-6.259-3.828-8.565S549.4,205.182,553.046,207.608Z" transform="translate(422.678 102.383)" fill="#7efaff" opacity="0.42"/>
    <g id="Group_5" data-name="Group 5" transform="translate(398.222 319.079)">
      <g id="Group_4" data-name="Group 4">
        <path id="Path_17" data-name="Path 17" d="M459.236,408.02,399.2,388.057l25.7-34.323Z" transform="translate(-222.934 37.746)" fill="#0038d9"/>
        <path id="Path_18" data-name="Path 18" d="M507.785,230.213l7.847,26.047,5.359,1.057L540.414,235.6l-4.4-10.959-12.624-2.493" transform="translate(-36.258 -188.456)" fill="#0038d9"/>
        <path id="Path_19" data-name="Path 19" d="M620.077,287.7l-9.52-40.3a31.035,31.035,0,0,0-3.015-7.755l.03-.016L594.92,215.075v12.16a30.705,30.705,0,0,0-26.962-.941l-47.508,21.133c23.384,18.193,46.179,38.807,61.582,63.026l10.591-13.027,15.195,3A10.505,10.505,0,0,0,620.077,287.7Z" transform="translate(-14.487 -200.621)" fill="#0038d9"/>
        <path id="Path_20" data-name="Path 20" d="M453.3,464.957,617.8,259.784l-9.647-1.9a8.644,8.644,0,0,1-1.841-16.377l65.343-29.064a30.879,30.879,0,0,1,42.6,21.114l9.519,40.3a10.507,10.507,0,0,1-12.258,12.725l-15.194-3L507.452,515.793Z" transform="translate(-129.921 -209.759)" fill="#3bfaff"/>
        <path id="Path_21" data-name="Path 21" d="M556.969,317.269,478.923,295.3,406.6,386.484,443.1,437.8l17.759,20.059,35.324-34.408" transform="translate(-210.199 -62.713)" fill="#24d7ff"/>
        <path id="Path_22" data-name="Path 22" d="M449.084,324.5c-3.7,8.614-12.5,16.584-19.656,17.8s-9.949-4.778-6.246-13.394,12.5-16.586,19.656-17.8S452.788,315.885,449.084,324.5Z" transform="translate(-184.51 -35.805)" fill="#0083ff" opacity="0.23"/>
        <path id="Path_23" data-name="Path 23" d="M512.6,385.261l-67.722-13.37,34.469-50.776,25.077,24.607,4.15,9.612" transform="translate(-144.405 -18.327)" fill="#0038d9"/>
        <path id="Path_24" data-name="Path 24" d="M416.4,651.553l-54.5,15.956,135.95-176.63,33.9,56.889L633.83,417.647l30.76,51.477L853.458,236.906l11.8,22.945L655.254,530.025l-32.778-54.876L523.361,608.857l-34.337-54.287Z" transform="translate(-287.06 -163.091)" fill="#0083ff"/>
        <g id="Group_3" data-name="Group 3" transform="translate(138.503 73.815)">
          <path id="Path_25" data-name="Path 25" d="M448.77,554.57,418.735,594.68c-10.313-3.546-21.527-6.882-33.426-9.89l72.282-93.909,33.9,56.889L593.576,417.647l30.761,51.478L813.205,236.906l11.8,22.946L615,530.025l-32.776-54.877L483.107,608.857Z" transform="translate(-385.309 -236.906)" fill="#0083ff"/>
        </g>
        <path id="Path_26" data-name="Path 26" d="M545.156,344.877l-82.444-23.041L334.372,491.371l74.834,30.136Z" transform="translate(-334.372 -17.088)" fill="#1ac6ff"/>
        <path id="Path_27" data-name="Path 27" d="M383.328,388.2c-3.018,7.029-10.2,13.533-16.035,14.525s-8.119-3.9-5.1-10.925,10.2-13.533,16.035-14.525S386.349,381.167,383.328,388.2Z" transform="translate(-288.833 77.987)" fill="#0083ff" opacity="0.23"/>
      </g>
      <path id="Path_28" data-name="Path 28" d="M475.455,321.607" transform="translate(-91.836 -17.482)" fill="#ff111a"/>
    </g>
    <g id="Group_29" data-name="Group 29" transform="translate(910.434 436.575)">
      <g id="Group_7" data-name="Group 7" transform="translate(3.103)">
        <g id="Group_6" data-name="Group 6">
          <path id="Rectangle_19" data-name="Rectangle 19" d="M4.8,0H197.72a4.8,4.8,0,0,1,4.8,4.8V205.7a4.8,4.8,0,0,1-4.8,4.8H4.8A4.8,4.8,0,0,1,0,205.7V4.8A4.8,4.8,0,0,1,4.8,0Z" fill="#3bfaff" opacity="0.59"/>
          <path id="Path_29" data-name="Path 29" d="M710.044,252.971H540.253a16.362,16.362,0,0,0-16.364,16.361v12.44H726.4v-12.44A16.358,16.358,0,0,0,710.044,252.971Z" transform="translate(-523.888 -252.97)" fill="#0083ff"/>
        </g>
        <path id="Path_30" data-name="Path 30" d="M541.444,263.674a7.646,7.646,0,1,1-7.646-7.646A7.642,7.642,0,0,1,541.444,263.674Z" transform="translate(-519.998 -247.715)" fill="#0083ff"/>
        <path id="Path_31" data-name="Path 31" d="M538.544,262.552a5.869,5.869,0,1,1-5.871-5.871A5.869,5.869,0,0,1,538.544,262.552Z" transform="translate(-518.874 -246.592)" fill="#e70f40"/>
        <path id="Path_32" data-name="Path 32" d="M547.566,263.459a7.3,7.3,0,1,1-7.3-7.306A7.305,7.305,0,0,1,547.566,263.459Z" transform="translate(-508.301 -247.5)" fill="#0083ff"/>
        <path id="Path_33" data-name="Path 33" d="M545.224,262.552a5.871,5.871,0,1,1-5.868-5.871A5.867,5.867,0,0,1,545.224,262.552Z" transform="translate(-507.395 -246.592)" fill="#ffcb1c"/>
        <path id="Path_34" data-name="Path 34" d="M554.364,263.528a7.414,7.414,0,1,1-7.412-7.415A7.411,7.411,0,0,1,554.364,263.528Z" transform="translate(-496.988 -247.569)" fill="#0083ff"/>
        <path id="Path_35" data-name="Path 35" d="M551.846,262.552a5.871,5.871,0,1,1-5.871-5.871A5.87,5.87,0,0,1,551.846,262.552Z" transform="translate(-496.011 -246.592)" fill="#3bfaff"/>
      </g>
      <g id="Group_16" data-name="Group 16" transform="translate(10.947 32.08)">
        <circle id="Ellipse_4" data-name="Ellipse 4" cx="26.429" cy="26.429" r="26.429" fill="#0083ff"/>
        <path id="Path_36" data-name="Path 36" d="M571.686,288.119a21.561,21.561,0,1,1-21.562-21.56A21.565,21.565,0,0,1,571.686,288.119Z" transform="translate(-523.695 -261.691)" fill="#0083ff"/>
        <g id="Group_8" data-name="Group 8" transform="translate(16.994 9.412)">
          <path id="Path_37" data-name="Path 37" d="M546,274.024a5.8,5.8,0,1,1-5.8-5.794A5.8,5.8,0,0,1,546,274.024Z" transform="translate(-530.655 -268.23)" fill="#ffcb1c"/>
          <path id="Rectangle_20" data-name="Rectangle 20" d="M2.721,0H16.365a2.722,2.722,0,0,1,2.722,2.722V19.552a.966.966,0,0,1-.966.966H.966A.966.966,0,0,1,0,19.552V2.721A2.721,2.721,0,0,1,2.721,0Z" transform="translate(0 12.784)" fill="#ffcb1c"/>
        </g>
        <g id="Group_9" data-name="Group 9" transform="translate(16.994 68.457)">
          <path id="Path_38" data-name="Path 38" d="M546,295.742a5.8,5.8,0,1,1-5.8-5.8A5.8,5.8,0,0,1,546,295.742Z" transform="translate(-530.655 -289.945)" fill="#002185"/>
          <path id="Rectangle_21" data-name="Rectangle 21" d="M2.722,0H16.365a2.722,2.722,0,0,1,2.722,2.722V19.552a.966.966,0,0,1-.966.966H.966A.966.966,0,0,1,0,19.552V2.722A2.722,2.722,0,0,1,2.722,0Z" transform="translate(0 12.787)" fill="#002185"/>
        </g>
        <g id="Group_10" data-name="Group 10" transform="translate(16.994 126.893)">
          <path id="Path_39" data-name="Path 39" d="M546,317.233a5.8,5.8,0,1,1-5.8-5.8A5.795,5.795,0,0,1,546,317.233Z" transform="translate(-530.655 -311.436)" fill="#002185"/>
          <path id="Rectangle_22" data-name="Rectangle 22" d="M2.722,0H16.365a2.722,2.722,0,0,1,2.722,2.722V19.552a.966.966,0,0,1-.966.966H.966A.966.966,0,0,1,0,19.552V2.722A2.722,2.722,0,0,1,2.722,0Z" transform="translate(0 12.784)" fill="#002185"/>
        </g>
        <rect id="Rectangle_23" data-name="Rectangle 23" width="114.34" height="53.293" rx="2.246" transform="translate(72.492 0.029)" fill="#3bfaff" opacity="0.59"/>
        <path id="Path_40" data-name="Path 40" d="M654.281,269.42h-96.86a1.228,1.228,0,0,1-1.224-1.226h0a1.227,1.227,0,0,1,1.224-1.224h96.86a1.227,1.227,0,0,1,1.224,1.224h0A1.228,1.228,0,0,1,654.281,269.42Z" transform="translate(-476.19 -260.984)" fill="#ffcb1c"/>
        <g id="Group_11" data-name="Group 11" transform="translate(80.008 13.357)">
          <path id="Path_41" data-name="Path 41" d="M575.781,271.832H557.272a1.08,1.08,0,0,1-1.074-1.077h0a1.076,1.076,0,0,1,1.074-1.074h18.509a1.076,1.076,0,0,1,1.074,1.074h0A1.08,1.08,0,0,1,575.781,271.832Z" transform="translate(-556.198 -269.681)" fill="#3bfaff"/>
          <path id="Path_42" data-name="Path 42" d="M585.49,271.832H566.981a1.08,1.08,0,0,1-1.074-1.077h0a1.076,1.076,0,0,1,1.074-1.074H585.49a1.076,1.076,0,0,1,1.074,1.074h0A1.08,1.08,0,0,1,585.49,271.832Z" transform="translate(-539.507 -269.681)" fill="#3bfaff"/>
          <path id="Path_43" data-name="Path 43" d="M595.2,271.832H576.69a1.08,1.08,0,0,1-1.074-1.077h0a1.076,1.076,0,0,1,1.074-1.074H595.2a1.076,1.076,0,0,1,1.074,1.074h0A1.08,1.08,0,0,1,595.2,271.832Z" transform="translate(-522.817 -269.681)" fill="#3bfaff"/>
          <path id="Path_44" data-name="Path 44" d="M604.7,271.832H586.2a1.083,1.083,0,0,1-1.077-1.077h0a1.079,1.079,0,0,1,1.077-1.074H604.7a1.077,1.077,0,0,1,1.077,1.074h0A1.081,1.081,0,0,1,604.7,271.832Z" transform="translate(-506.475 -269.681)" fill="#3bfaff"/>
        </g>
        <g id="Group_12" data-name="Group 12" transform="translate(80.008 20.427)">
          <path id="Path_45" data-name="Path 45" d="M575.781,274.429H557.272a1.076,1.076,0,0,1-1.074-1.074h0a1.078,1.078,0,0,1,1.074-1.074h18.509a1.078,1.078,0,0,1,1.074,1.074h0A1.076,1.076,0,0,1,575.781,274.429Z" transform="translate(-556.198 -272.281)" fill="#3bfaff"/>
          <path id="Path_46" data-name="Path 46" d="M585.49,274.429H566.981a1.076,1.076,0,0,1-1.074-1.074h0a1.078,1.078,0,0,1,1.074-1.074H585.49a1.078,1.078,0,0,1,1.074,1.074h0A1.076,1.076,0,0,1,585.49,274.429Z" transform="translate(-539.507 -272.281)" fill="#3bfaff"/>
          <path id="Path_47" data-name="Path 47" d="M595.2,274.429H576.69a1.076,1.076,0,0,1-1.074-1.074h0a1.078,1.078,0,0,1,1.074-1.074H595.2a1.078,1.078,0,0,1,1.074,1.074h0A1.076,1.076,0,0,1,595.2,274.429Z" transform="translate(-522.817 -272.281)" fill="#3bfaff"/>
          <path id="Path_48" data-name="Path 48" d="M604.7,274.429H586.2a1.079,1.079,0,0,1-1.077-1.074h0a1.08,1.08,0,0,1,1.077-1.074H604.7a1.079,1.079,0,0,1,1.077,1.074h0A1.077,1.077,0,0,1,604.7,274.429Z" transform="translate(-506.475 -272.281)" fill="#3bfaff"/>
        </g>
        <g id="Group_13" data-name="Group 13" transform="translate(80.008 27.497)">
          <path id="Path_49" data-name="Path 49" d="M575.781,277.032H557.272a1.079,1.079,0,0,1-1.074-1.077h0a1.08,1.08,0,0,1,1.074-1.074h18.509a1.08,1.08,0,0,1,1.074,1.074h0A1.079,1.079,0,0,1,575.781,277.032Z" transform="translate(-556.198 -274.881)" fill="#3bfaff"/>
          <path id="Path_50" data-name="Path 50" d="M585.49,277.032H566.981a1.079,1.079,0,0,1-1.074-1.077h0a1.08,1.08,0,0,1,1.074-1.074H585.49a1.08,1.08,0,0,1,1.074,1.074h0A1.079,1.079,0,0,1,585.49,277.032Z" transform="translate(-539.507 -274.881)" fill="#3bfaff"/>
          <path id="Path_51" data-name="Path 51" d="M595.2,277.032H576.69a1.079,1.079,0,0,1-1.074-1.077h0a1.08,1.08,0,0,1,1.074-1.074H595.2a1.08,1.08,0,0,1,1.074,1.074h0A1.079,1.079,0,0,1,595.2,277.032Z" transform="translate(-522.817 -274.881)" fill="#3bfaff"/>
          <path id="Path_52" data-name="Path 52" d="M604.7,277.032H586.2a1.081,1.081,0,0,1-1.077-1.077h0a1.082,1.082,0,0,1,1.077-1.074H604.7a1.08,1.08,0,0,1,1.077,1.074h0A1.079,1.079,0,0,1,604.7,277.032Z" transform="translate(-506.475 -274.881)" fill="#3bfaff"/>
        </g>
        <g id="Group_14" data-name="Group 14" transform="translate(80.008 34.569)">
          <path id="Path_53" data-name="Path 53" d="M575.781,279.63H557.272a1.076,1.076,0,0,1-1.074-1.074h0a1.078,1.078,0,0,1,1.074-1.074h18.509a1.078,1.078,0,0,1,1.074,1.074h0A1.076,1.076,0,0,1,575.781,279.63Z" transform="translate(-556.198 -277.482)" fill="#3bfaff"/>
          <path id="Path_54" data-name="Path 54" d="M585.49,279.63H566.981a1.076,1.076,0,0,1-1.074-1.074h0a1.078,1.078,0,0,1,1.074-1.074H585.49a1.078,1.078,0,0,1,1.074,1.074h0A1.076,1.076,0,0,1,585.49,279.63Z" transform="translate(-539.507 -277.482)" fill="#3bfaff"/>
          <path id="Path_55" data-name="Path 55" d="M595.2,279.63H576.69a1.076,1.076,0,0,1-1.074-1.074h0a1.078,1.078,0,0,1,1.074-1.074H595.2a1.078,1.078,0,0,1,1.074,1.074h0A1.076,1.076,0,0,1,595.2,279.63Z" transform="translate(-522.817 -277.482)" fill="#3bfaff"/>
          <path id="Path_56" data-name="Path 56" d="M604.7,279.63H586.2a1.079,1.079,0,0,1-1.077-1.074h0a1.08,1.08,0,0,1,1.077-1.074H604.7a1.079,1.079,0,0,1,1.077,1.074h0A1.077,1.077,0,0,1,604.7,279.63Z" transform="translate(-506.475 -277.482)" fill="#3bfaff"/>
        </g>
        <g id="Group_15" data-name="Group 15" transform="translate(80.008 41.639)">
          <path id="Path_57" data-name="Path 57" d="M575.781,282.233H557.272a1.08,1.08,0,0,1-1.074-1.074h0a1.079,1.079,0,0,1,1.074-1.077h18.509a1.079,1.079,0,0,1,1.074,1.077h0A1.08,1.08,0,0,1,575.781,282.233Z" transform="translate(-556.198 -280.082)" fill="#3bfaff"/>
          <path id="Path_58" data-name="Path 58" d="M585.49,282.233H566.981a1.08,1.08,0,0,1-1.074-1.074h0a1.079,1.079,0,0,1,1.074-1.077H585.49a1.079,1.079,0,0,1,1.074,1.077h0A1.08,1.08,0,0,1,585.49,282.233Z" transform="translate(-539.507 -280.082)" fill="#3bfaff"/>
          <path id="Path_59" data-name="Path 59" d="M595.2,282.233H576.69a1.08,1.08,0,0,1-1.074-1.074h0a1.079,1.079,0,0,1,1.074-1.077H595.2a1.079,1.079,0,0,1,1.074,1.077h0A1.08,1.08,0,0,1,595.2,282.233Z" transform="translate(-522.817 -280.082)" fill="#3bfaff"/>
          <path id="Path_60" data-name="Path 60" d="M604.7,282.233H586.2a1.082,1.082,0,0,1-1.077-1.074h0a1.081,1.081,0,0,1,1.077-1.077H604.7a1.079,1.079,0,0,1,1.077,1.077h0A1.08,1.08,0,0,1,604.7,282.233Z" transform="translate(-506.475 -280.082)" fill="#3bfaff"/>
        </g>
      </g>
      <g id="Group_22" data-name="Group 22" transform="translate(5.582 85.148)">
        <circle id="Ellipse_5" data-name="Ellipse 5" cx="26.429" cy="26.429" r="26.429" transform="translate(0 51.444) rotate(-76.718)" fill="#0083ff"/>
        <path id="Path_61" data-name="Path 61" d="M571.686,309.612a21.561,21.561,0,1,1-21.562-21.562A21.564,21.564,0,0,1,571.686,309.612Z" transform="translate(-518.33 -277.816)" fill="#0083ff"/>
        <path id="Rectangle_24" data-name="Rectangle 24" d="M2.246,0H112.094a2.246,2.246,0,0,1,2.246,2.246v48.8a2.245,2.245,0,0,1-2.245,2.245H2.246A2.246,2.246,0,0,1,0,51.045V2.246A2.246,2.246,0,0,1,2.246,0Z" transform="translate(77.857 5.397)" fill="#3bfaff" opacity="0.59"/>
        <path id="Path_62" data-name="Path 62" d="M654.281,290.908h-96.86a1.227,1.227,0,0,1-1.224-1.224h0a1.225,1.225,0,0,1,1.224-1.224h96.86a1.225,1.225,0,0,1,1.224,1.224h0A1.227,1.227,0,0,1,654.281,290.908Z" transform="translate(-470.824 -277.108)" fill="#ffcb1c"/>
        <g id="Group_17" data-name="Group 17" transform="translate(85.374 18.722)">
          <path id="Path_63" data-name="Path 63" d="M575.781,293.322H557.272a1.08,1.08,0,0,1-1.074-1.077h0a1.078,1.078,0,0,1,1.074-1.074h18.509a1.078,1.078,0,0,1,1.074,1.074h0A1.08,1.08,0,0,1,575.781,293.322Z" transform="translate(-556.198 -291.171)" fill="#3bfaff"/>
          <path id="Path_64" data-name="Path 64" d="M585.49,293.322H566.981a1.081,1.081,0,0,1-1.074-1.077h0a1.078,1.078,0,0,1,1.074-1.074H585.49a1.078,1.078,0,0,1,1.074,1.074h0A1.08,1.08,0,0,1,585.49,293.322Z" transform="translate(-539.507 -291.171)" fill="#3bfaff"/>
          <path id="Path_65" data-name="Path 65" d="M595.2,293.322H576.69a1.08,1.08,0,0,1-1.074-1.077h0a1.078,1.078,0,0,1,1.074-1.074H595.2a1.078,1.078,0,0,1,1.074,1.074h0A1.081,1.081,0,0,1,595.2,293.322Z" transform="translate(-522.817 -291.171)" fill="#3bfaff"/>
          <path id="Path_66" data-name="Path 66" d="M604.7,293.322H586.2a1.083,1.083,0,0,1-1.077-1.077h0a1.08,1.08,0,0,1,1.077-1.074H604.7a1.079,1.079,0,0,1,1.077,1.074h0A1.081,1.081,0,0,1,604.7,293.322Z" transform="translate(-506.475 -291.171)" fill="#3bfaff"/>
        </g>
        <g id="Group_18" data-name="Group 18" transform="translate(85.374 25.794)">
          <path id="Path_67" data-name="Path 67" d="M575.781,295.917H557.272a1.076,1.076,0,0,1-1.074-1.071h0a1.076,1.076,0,0,1,1.074-1.074h18.509a1.076,1.076,0,0,1,1.074,1.074h0A1.076,1.076,0,0,1,575.781,295.917Z" transform="translate(-556.198 -293.772)" fill="#3bfaff"/>
          <path id="Path_68" data-name="Path 68" d="M585.49,295.917H566.981a1.076,1.076,0,0,1-1.074-1.071h0a1.076,1.076,0,0,1,1.074-1.074H585.49a1.076,1.076,0,0,1,1.074,1.074h0A1.076,1.076,0,0,1,585.49,295.917Z" transform="translate(-539.507 -293.772)" fill="#3bfaff"/>
          <path id="Path_69" data-name="Path 69" d="M595.2,295.917H576.69a1.076,1.076,0,0,1-1.074-1.071h0a1.076,1.076,0,0,1,1.074-1.074H595.2a1.076,1.076,0,0,1,1.074,1.074h0A1.076,1.076,0,0,1,595.2,295.917Z" transform="translate(-522.817 -293.772)" fill="#3bfaff"/>
          <path id="Path_70" data-name="Path 70" d="M604.7,295.917H586.2a1.078,1.078,0,0,1-1.077-1.071h0a1.079,1.079,0,0,1,1.077-1.074H604.7a1.077,1.077,0,0,1,1.077,1.074h0A1.076,1.076,0,0,1,604.7,295.917Z" transform="translate(-506.475 -293.772)" fill="#3bfaff"/>
        </g>
        <g id="Group_19" data-name="Group 19" transform="translate(85.374 32.861)">
          <path id="Path_71" data-name="Path 71" d="M575.781,298.522H557.272a1.077,1.077,0,0,1-1.074-1.071h0a1.081,1.081,0,0,1,1.074-1.079h18.509a1.081,1.081,0,0,1,1.074,1.079h0A1.077,1.077,0,0,1,575.781,298.522Z" transform="translate(-556.198 -296.371)" fill="#3bfaff"/>
          <path id="Path_72" data-name="Path 72" d="M585.49,298.522H566.981a1.077,1.077,0,0,1-1.074-1.071h0a1.081,1.081,0,0,1,1.074-1.079H585.49a1.081,1.081,0,0,1,1.074,1.079h0A1.077,1.077,0,0,1,585.49,298.522Z" transform="translate(-539.507 -296.371)" fill="#3bfaff"/>
          <path id="Path_73" data-name="Path 73" d="M595.2,298.522H576.69a1.077,1.077,0,0,1-1.074-1.071h0a1.081,1.081,0,0,1,1.074-1.079H595.2a1.081,1.081,0,0,1,1.074,1.079h0A1.077,1.077,0,0,1,595.2,298.522Z" transform="translate(-522.817 -296.371)" fill="#3bfaff"/>
          <path id="Path_74" data-name="Path 74" d="M604.7,298.522H586.2a1.08,1.08,0,0,1-1.077-1.071h0a1.083,1.083,0,0,1,1.077-1.079H604.7a1.081,1.081,0,0,1,1.077,1.079h0A1.078,1.078,0,0,1,604.7,298.522Z" transform="translate(-506.475 -296.371)" fill="#3bfaff"/>
        </g>
        <g id="Group_20" data-name="Group 20" transform="translate(85.374 39.936)">
          <path id="Path_75" data-name="Path 75" d="M575.781,301.121H557.272a1.079,1.079,0,0,1-1.074-1.077h0a1.076,1.076,0,0,1,1.074-1.071h18.509a1.076,1.076,0,0,1,1.074,1.071h0A1.079,1.079,0,0,1,575.781,301.121Z" transform="translate(-556.198 -298.973)" fill="#3bfaff"/>
          <path id="Path_76" data-name="Path 76" d="M585.49,301.121H566.981a1.079,1.079,0,0,1-1.074-1.077h0a1.076,1.076,0,0,1,1.074-1.071H585.49a1.076,1.076,0,0,1,1.074,1.071h0A1.079,1.079,0,0,1,585.49,301.121Z" transform="translate(-539.507 -298.973)" fill="#3bfaff"/>
          <path id="Path_77" data-name="Path 77" d="M595.2,301.121H576.69a1.079,1.079,0,0,1-1.074-1.077h0a1.076,1.076,0,0,1,1.074-1.071H595.2a1.076,1.076,0,0,1,1.074,1.071h0A1.079,1.079,0,0,1,595.2,301.121Z" transform="translate(-522.817 -298.973)" fill="#3bfaff"/>
          <path id="Path_78" data-name="Path 78" d="M604.7,301.121H586.2a1.081,1.081,0,0,1-1.077-1.077h0a1.078,1.078,0,0,1,1.077-1.071H604.7a1.076,1.076,0,0,1,1.077,1.071h0A1.079,1.079,0,0,1,604.7,301.121Z" transform="translate(-506.475 -298.973)" fill="#3bfaff"/>
        </g>
        <g id="Group_21" data-name="Group 21" transform="translate(85.374 47.003)">
          <path id="Path_79" data-name="Path 79" d="M575.781,303.723H557.272a1.076,1.076,0,0,1-1.074-1.074h0a1.079,1.079,0,0,1,1.074-1.077h18.509a1.079,1.079,0,0,1,1.074,1.077h0A1.076,1.076,0,0,1,575.781,303.723Z" transform="translate(-556.198 -301.572)" fill="#3bfaff"/>
          <path id="Path_80" data-name="Path 80" d="M585.49,303.723H566.981a1.076,1.076,0,0,1-1.074-1.074h0a1.079,1.079,0,0,1,1.074-1.077H585.49a1.079,1.079,0,0,1,1.074,1.077h0A1.076,1.076,0,0,1,585.49,303.723Z" transform="translate(-539.507 -301.572)" fill="#3bfaff"/>
          <path id="Path_81" data-name="Path 81" d="M595.2,303.723H576.69a1.076,1.076,0,0,1-1.074-1.074h0a1.079,1.079,0,0,1,1.074-1.077H595.2a1.079,1.079,0,0,1,1.074,1.077h0A1.076,1.076,0,0,1,595.2,303.723Z" transform="translate(-522.817 -301.572)" fill="#3bfaff"/>
          <path id="Path_82" data-name="Path 82" d="M604.7,303.723H586.2a1.079,1.079,0,0,1-1.077-1.074h0a1.081,1.081,0,0,1,1.077-1.077H604.7a1.079,1.079,0,0,1,1.077,1.077h0A1.077,1.077,0,0,1,604.7,303.723Z" transform="translate(-506.475 -301.572)" fill="#3bfaff"/>
        </g>
      </g>
      <g id="Group_28" data-name="Group 28" transform="translate(0 138.001)">
        <circle id="Ellipse_6" data-name="Ellipse 6" cx="26.429" cy="26.429" r="26.429" transform="translate(0 37.376) rotate(-45)" fill="#0083ff"/>
        <path id="Path_83" data-name="Path 83" d="M571.686,331.1a21.561,21.561,0,1,1-21.562-21.56A21.565,21.565,0,0,1,571.686,331.1Z" transform="translate(-512.748 -293.723)" fill="#0083ff"/>
        <path id="Rectangle_25" data-name="Rectangle 25" d="M2.246,0H112.094a2.246,2.246,0,0,1,2.246,2.246v48.8a2.245,2.245,0,0,1-2.245,2.245H2.246A2.246,2.246,0,0,1,0,51.044V2.246A2.246,2.246,0,0,1,2.246,0Z" transform="translate(83.439 10.979)" fill="#3bfaff" opacity="0.59"/>
        <path id="Path_84" data-name="Path 84" d="M654.281,312.4h-96.86a1.228,1.228,0,0,1-1.224-1.226h0a1.226,1.226,0,0,1,1.224-1.224h96.86a1.225,1.225,0,0,1,1.224,1.224h0A1.228,1.228,0,0,1,654.281,312.4Z" transform="translate(-465.242 -293.016)" fill="#ffcb1c"/>
        <g id="Group_23" data-name="Group 23" transform="translate(90.956 24.303)">
          <path id="Path_85" data-name="Path 85" d="M575.781,314.812H557.272a1.078,1.078,0,0,1-1.074-1.074h0a1.08,1.08,0,0,1,1.074-1.077h18.509a1.08,1.08,0,0,1,1.074,1.077h0A1.078,1.078,0,0,1,575.781,314.812Z" transform="translate(-556.198 -312.661)" fill="#3bfaff"/>
          <path id="Path_86" data-name="Path 86" d="M585.49,314.812H566.981a1.078,1.078,0,0,1-1.074-1.074h0a1.081,1.081,0,0,1,1.074-1.077H585.49a1.08,1.08,0,0,1,1.074,1.077h0A1.078,1.078,0,0,1,585.49,314.812Z" transform="translate(-539.507 -312.661)" fill="#3bfaff"/>
          <path id="Path_87" data-name="Path 87" d="M595.2,314.812H576.69a1.078,1.078,0,0,1-1.074-1.074h0a1.08,1.08,0,0,1,1.074-1.077H595.2a1.081,1.081,0,0,1,1.074,1.077h0A1.078,1.078,0,0,1,595.2,314.812Z" transform="translate(-522.817 -312.661)" fill="#3bfaff"/>
          <path id="Path_88" data-name="Path 88" d="M604.7,314.812H586.2a1.08,1.08,0,0,1-1.077-1.074h0a1.083,1.083,0,0,1,1.077-1.077H604.7a1.081,1.081,0,0,1,1.077,1.077h0A1.079,1.079,0,0,1,604.7,314.812Z" transform="translate(-506.475 -312.661)" fill="#3bfaff"/>
        </g>
        <g id="Group_24" data-name="Group 24" transform="translate(90.956 31.376)">
          <path id="Path_89" data-name="Path 89" d="M575.781,317.413H557.272a1.079,1.079,0,0,1-1.074-1.077h0a1.078,1.078,0,0,1,1.074-1.074h18.509a1.078,1.078,0,0,1,1.074,1.074h0A1.079,1.079,0,0,1,575.781,317.413Z" transform="translate(-556.198 -315.262)" fill="#3bfaff"/>
          <path id="Path_90" data-name="Path 90" d="M585.49,317.413H566.981a1.079,1.079,0,0,1-1.074-1.077h0a1.078,1.078,0,0,1,1.074-1.074H585.49a1.078,1.078,0,0,1,1.074,1.074h0A1.079,1.079,0,0,1,585.49,317.413Z" transform="translate(-539.507 -315.262)" fill="#3bfaff"/>
          <path id="Path_91" data-name="Path 91" d="M595.2,317.413H576.69a1.079,1.079,0,0,1-1.074-1.077h0a1.078,1.078,0,0,1,1.074-1.074H595.2a1.078,1.078,0,0,1,1.074,1.074h0A1.079,1.079,0,0,1,595.2,317.413Z" transform="translate(-522.817 -315.262)" fill="#3bfaff"/>
          <path id="Path_92" data-name="Path 92" d="M604.7,317.413H586.2a1.081,1.081,0,0,1-1.077-1.077h0a1.081,1.081,0,0,1,1.077-1.074H604.7a1.079,1.079,0,0,1,1.077,1.074h0A1.079,1.079,0,0,1,604.7,317.413Z" transform="translate(-506.475 -315.262)" fill="#3bfaff"/>
        </g>
        <g id="Group_25" data-name="Group 25" transform="translate(90.956 38.445)">
          <path id="Path_93" data-name="Path 93" d="M575.781,320.01H557.272a1.076,1.076,0,0,1-1.074-1.071h0a1.079,1.079,0,0,1,1.074-1.077h18.509a1.079,1.079,0,0,1,1.074,1.077h0A1.076,1.076,0,0,1,575.781,320.01Z" transform="translate(-556.198 -317.862)" fill="#3bfaff"/>
          <path id="Path_94" data-name="Path 94" d="M585.49,320.01H566.981a1.076,1.076,0,0,1-1.074-1.071h0a1.079,1.079,0,0,1,1.074-1.077H585.49a1.079,1.079,0,0,1,1.074,1.077h0A1.076,1.076,0,0,1,585.49,320.01Z" transform="translate(-539.507 -317.862)" fill="#3bfaff"/>
          <path id="Path_95" data-name="Path 95" d="M595.2,320.01H576.69a1.076,1.076,0,0,1-1.074-1.071h0a1.079,1.079,0,0,1,1.074-1.077H595.2a1.079,1.079,0,0,1,1.074,1.077h0A1.076,1.076,0,0,1,595.2,320.01Z" transform="translate(-522.817 -317.862)" fill="#3bfaff"/>
          <path id="Path_96" data-name="Path 96" d="M604.7,320.01H586.2a1.078,1.078,0,0,1-1.077-1.071h0a1.081,1.081,0,0,1,1.077-1.077H604.7a1.079,1.079,0,0,1,1.077,1.077h0A1.076,1.076,0,0,1,604.7,320.01Z" transform="translate(-506.475 -317.862)" fill="#3bfaff"/>
        </g>
        <g id="Group_26" data-name="Group 26" transform="translate(90.956 45.518)">
          <path id="Path_97" data-name="Path 97" d="M575.781,322.611H557.272a1.079,1.079,0,0,1-1.074-1.077h0a1.077,1.077,0,0,1,1.074-1.071h18.509a1.077,1.077,0,0,1,1.074,1.071h0A1.079,1.079,0,0,1,575.781,322.611Z" transform="translate(-556.198 -320.463)" fill="#3bfaff"/>
          <path id="Path_98" data-name="Path 98" d="M585.49,322.611H566.981a1.079,1.079,0,0,1-1.074-1.077h0a1.078,1.078,0,0,1,1.074-1.071H585.49a1.077,1.077,0,0,1,1.074,1.071h0A1.079,1.079,0,0,1,585.49,322.611Z" transform="translate(-539.507 -320.463)" fill="#3bfaff"/>
          <path id="Path_99" data-name="Path 99" d="M595.2,322.611H576.69a1.079,1.079,0,0,1-1.074-1.077h0a1.077,1.077,0,0,1,1.074-1.071H595.2a1.077,1.077,0,0,1,1.074,1.071h0A1.079,1.079,0,0,1,595.2,322.611Z" transform="translate(-522.817 -320.463)" fill="#3bfaff"/>
          <path id="Path_100" data-name="Path 100" d="M604.7,322.611H586.2a1.081,1.081,0,0,1-1.077-1.077h0a1.08,1.08,0,0,1,1.077-1.071H604.7a1.078,1.078,0,0,1,1.077,1.071h0A1.079,1.079,0,0,1,604.7,322.611Z" transform="translate(-506.475 -320.463)" fill="#3bfaff"/>
        </g>
        <g id="Group_27" data-name="Group 27" transform="translate(90.956 52.587)">
          <path id="Path_101" data-name="Path 101" d="M575.781,325.214H557.272a1.079,1.079,0,0,1-1.074-1.077h0a1.076,1.076,0,0,1,1.074-1.074h18.509a1.076,1.076,0,0,1,1.074,1.074h0A1.079,1.079,0,0,1,575.781,325.214Z" transform="translate(-556.198 -323.063)" fill="#3bfaff"/>
          <path id="Path_102" data-name="Path 102" d="M585.49,325.214H566.981a1.079,1.079,0,0,1-1.074-1.077h0a1.076,1.076,0,0,1,1.074-1.074H585.49a1.076,1.076,0,0,1,1.074,1.074h0A1.079,1.079,0,0,1,585.49,325.214Z" transform="translate(-539.507 -323.063)" fill="#3bfaff"/>
          <path id="Path_103" data-name="Path 103" d="M595.2,325.214H576.69a1.079,1.079,0,0,1-1.074-1.077h0a1.076,1.076,0,0,1,1.074-1.074H595.2a1.076,1.076,0,0,1,1.074,1.074h0A1.079,1.079,0,0,1,595.2,325.214Z" transform="translate(-522.817 -323.063)" fill="#3bfaff"/>
          <path id="Path_104" data-name="Path 104" d="M604.7,325.214H586.2a1.081,1.081,0,0,1-1.077-1.077h0a1.079,1.079,0,0,1,1.077-1.074H604.7a1.077,1.077,0,0,1,1.077,1.074h0A1.079,1.079,0,0,1,604.7,325.214Z" transform="translate(-506.475 -323.063)" fill="#3bfaff"/>
        </g>
      </g>
    </g>
    <g id="Group_44" data-name="Group 44" transform="translate(372.342 339.967)">
      <g id="Group_43" data-name="Group 43">
        <g id="Group_38" data-name="Group 38" transform="translate(0 71.358)">
          <g id="Group_30" data-name="Group 30" transform="translate(57.471 3.205)">
            <path id="Path_105" data-name="Path 105" d="M351.877,252.3l-1.292,1.985a36.28,36.28,0,0,0-4.6-2.376l1.569-2.415A10.187,10.187,0,0,1,361.63,246.5l18.286,11.872a10.185,10.185,0,0,1,2.991,14.071l-1.183,1.825a34.161,34.161,0,0,0-4.438-2.621l1.305-2a5.034,5.034,0,0,0-1.479-6.953l-18.286-11.872A5.029,5.029,0,0,0,351.877,252.3Z" transform="translate(-345.99 -244.863)" fill="#004aff"/>
          </g>
          <g id="Group_33" data-name="Group 33" transform="translate(82.981 28.146)">
            <g id="Group_31" data-name="Group 31">
              <path id="Path_106" data-name="Path 106" d="M356.21,255.478a3.178,3.178,0,0,1,4.391-.93l6.515,4.231a3.178,3.178,0,0,1,.935,4.391l-.838,1.289-11.842-7.69Z" transform="translate(-355.372 -254.036)" fill="#ff9200"/>
            </g>
            <g id="Group_32" data-name="Group 32" transform="translate(2.086 2.282)">
              <path id="Path_107" data-name="Path 107" d="M356.139,255.027a1.436,1.436,0,0,1,.128-.152l9.142,5.936a1.758,1.758,0,0,1-.084.177Z" transform="translate(-356.139 -254.875)" fill="#edf5f4"/>
            </g>
          </g>
          <g id="Group_36" data-name="Group 36" transform="translate(51.823 7.917)">
            <g id="Group_34" data-name="Group 34">
              <path id="Path_108" data-name="Path 108" d="M344.753,248.04a3.181,3.181,0,0,1,4.389-.935l6.515,4.234a3.177,3.177,0,0,1,.935,4.391l-.837,1.289-11.842-7.687Z" transform="translate(-343.913 -246.596)" fill="#ff9200"/>
            </g>
            <g id="Group_35" data-name="Group 35" transform="translate(2.086 2.284)">
              <path id="Path_109" data-name="Path 109" d="M344.68,247.583a1.643,1.643,0,0,1,.128-.147l9.142,5.933c-.027.06-.052.12-.084.179Z" transform="translate(-344.68 -247.436)" fill="#edf5f4"/>
            </g>
          </g>
          <g id="Group_37" data-name="Group 37">
            <path id="Path_110" data-name="Path 110" d="M330.537,300.809,396.124,343.4a12.48,12.48,0,0,0,17.258-3.674l22.2-34.184a12.477,12.477,0,0,0-3.668-17.258L366.32,245.7a12.477,12.477,0,0,0-17.258,3.668l-22.193,34.187A12.47,12.47,0,0,0,330.537,300.809Z" transform="translate(-324.854 -243.684)" fill="#ffe51c"/>
          </g>
        </g>
        <g id="Group_42" data-name="Group 42" transform="translate(74.888)">
          <path id="Path_111" data-name="Path 111" d="M421.6,326.431l5.794,6.282,20.94-19.966-20.94,9.668Z" transform="translate(-233.43 -53.599)" fill="#000f1f"/>
          <g id="Group_39" data-name="Group 39" transform="translate(14.623 128.632)">
            <path id="Path_112" data-name="Path 112" d="M366.334,301.549l-8.561,5.486,15.406,25.083-3.651-25.083Z" transform="translate(-357.773 -201.484)" fill="#000f1f"/>
            <path id="Path_113" data-name="Path 113" d="M364.151,370.3l85.078-15.746,17.522-43.807-41.619-46,5.112,70.09s-31.9,3.725-69.342,30.008Z" transform="translate(-352.395 -264.748)" fill="#00217a"/>
            <path id="Path_114" data-name="Path 114" d="M385.665,268.54l10.716,4.962,27.8,30.726-4.315,10.789c-24.379-14.824-32.2-38.891-33.842-45.023C385.771,269.059,385.665,268.54,385.665,268.54Z" transform="translate(-309.825 -258.229)" fill="#001467"/>
            <path id="Path_115" data-name="Path 115" d="M384.524,264.748s5.112,29.935,33.589,46.73,32.123,18.253,32.123,18.253,8.81,44.172,35.1,79.215l5.794-4.013L469.95,314.4,432.715,271.32Z" transform="translate(-311.786 -264.748)" fill="#003591"/>
            <path id="Path_116" data-name="Path 116" d="M384.589,265.518c.258-.242.511-.484.772-.723l47.242,6.444s-13.519,8.622-44.729,5.193C385.807,272.819,385.152,268.145,384.589,265.518Z" transform="translate(-311.675 -264.667)" fill="#002460"/>
          </g>
          <path id="Path_117" data-name="Path 117" d="M406.87,223.583c4.051-7.034,15.841-8.6,28.7-1.686,3.7.957,5.835.832,7.331-.334-.03,4.446,1.871,12.682-8.225,16.464.147.324-.957.264-.8.579L419.541,248.99l-9.647,3.731-4.282-4.631a20.489,20.489,0,0,0-1.066-1.9C393.859,232.284,406.87,223.583,406.87,223.583Z" transform="translate(-269.989 -217.441)" fill="#131637"/>
          <path id="Path_118" data-name="Path 118" d="M417.126,226.215s2.45,4.318.46,12.505l-7.113-2.368Z" transform="translate(-252.556 -202.358)" fill="#ff746b"/>
          <path id="Path_119" data-name="Path 119" d="M417.933,234.465l-2.608,5.056-6.806-4-.045-4.2,2.4-2.523" transform="translate(-255.99 -197.916)" fill="#fff"/>
          <path id="Path_120" data-name="Path 120" d="M409.425,234.339l-1.061,3.192a9.98,9.98,0,0,0,5.949-5.106s-5.166-2.991-2.882-6.722c1.9-3.1,5.743-.566,6.129,2.773l-1.284,3.856s2.192.666,5.03-6.6l1.406-.935,11,1.441s.778,8.456-2.741,15.964l-5.952-1.982s-1.414,4.364,3.344,7.037a19.834,19.834,0,0,1-2.918,3.837l-8.755-2.909-2.124,6.393-5.778.6-4.786-.068-3.121-2.909.2-5.155,3.573-10.746S406.692,236.857,409.425,234.339Z" transform="translate(-269.034 -205.65)" fill="#ffcda9"/>
          <g id="Group_40" data-name="Group 40" transform="translate(126.268 52.464)">
            <path id="Path_121" data-name="Path 121" d="M421.352,236.737s34.62,50.129,74.313,51.579l-4.011,12.309s-51.212,3.595-92.822-43.144C398.833,257.481,403.7,236.571,421.352,236.737Z" transform="translate(-398.833 -236.736)" fill="#003591"/>
            <path id="Path_122" data-name="Path 122" d="M424.514,278.209l-5.1-38.913-18.136,20.725A130.756,130.756,0,0,0,424.514,278.209Z" transform="translate(-394.631 -232.334)" fill="#001467"/>
            <path id="Path_123" data-name="Path 123" d="M439.788,259.1l17.329-4.129-12.985,17.257-4.947-2.422-4.74-1.179Z" transform="translate(-337.612 -205.383)" fill="#ffcda9"/>
            <path id="Path_124" data-name="Path 124" d="M441.722,268.73l1.808-11.949-8.009-1.179-2.552,12.589Z" transform="translate(-340.149 -204.303)" fill="#004fa9"/>
          </g>
          <path id="Path_125" data-name="Path 125" d="M381.91,313.807s15.9,21.062,55.3,11.581c0,0,9.082-39.364,13.848-61.579,2.069-9.65.057-18.593-2.757-23.129l-20-6.635c-1.49-.495-7.075,1.74-8.641,1.865l-1.482-2.613-31.745,72.178Z" transform="translate(-301.657 -190.183)" fill="#fff"/>
          <path id="Path_126" data-name="Path 126" d="M435.82,243.446s-1.99,51.437-33.336,91.2c0,0-15.618-6.632-22.609-23.374l45.439-78.068s4.587-.223,6.482,1.014Z" transform="translate(-305.157 -190.362)" fill="#001f47"/>
          <g id="Group_41" data-name="Group 41" transform="translate(0 41.39)">
            <path id="Path_127" data-name="Path 127" d="M445.9,262.486s-49.49-14.1-80.812,10.33l-4.848-12s36.893-35.7,98.817-26.693C459.06,234.12,459.525,251.256,445.9,262.486Z" transform="translate(-338.905 -232.663)" fill="#003591"/>
            <path id="Path_128" data-name="Path 128" d="M377.863,252.92l-6.418,3.07-.491,5.47-3.4-1.7-3.04,5.226-4.44,2.48-2.536-4.392-5.138-6.354,3.747-9.681,10.547-.661,2.2-2.276Z" transform="translate(-352.396 -213.008)" fill="#ffcda9"/>
            <path id="Path_129" data-name="Path 129" d="M357.8,247.209l9.631,12.868,7-4.713-9.384-13.147Z" transform="translate(-343.102 -216.239)" fill="#004fa9"/>
          </g>
          <rect id="Rectangle_26" data-name="Rectangle 26" width="10.809" height="3.7" transform="translate(149.4 73.624) rotate(-161.614)" fill="#dbecff"/>
          <path id="Path_130" data-name="Path 130" d="M415.828,242.7s-2.2,48.46-15.379,79.052H414.64s6.246-40.985,7.195-63.684c.729-17.451-5.406-22.06-5.406-22.06Z" transform="translate(-269.787 -185.516)" fill="#001f47"/>
          <path id="Path_131" data-name="Path 131" d="M397.378,259.783c13.769-4.2,30.435-10.822,36.5-22.849l1.447,1.21S421,274.316,385.563,278.272Z" transform="translate(-295.377 -183.931)" fill="#dbecff"/>
          <path id="Path_132" data-name="Path 132" d="M443.7,238.184s-18.063,40-57.362,35.62l-5.77-7.469,6.074-8.445s44.444,2.273,55.372-21.079Z" transform="translate(-303.971 -184.142)" fill="#0083ff"/>
          <path id="Path_133" data-name="Path 133" d="M408.3,242.366a2.793,2.793,0,0,1-3.75-1.248l-3.176-6.338,6.6,1.1a2.463,2.463,0,0,1,.715.239l5.947,3.07Z" transform="translate(-268.191 -187.634)" fill="#003c9a"/>
          <path id="Path_134" data-name="Path 134" d="M403.939,235.6l5.89,8.848a10.83,10.83,0,0,0-.112-9.443S407.6,236.811,403.939,235.6Z" transform="translate(-263.787 -187.256)" fill="#fff"/>
          <path id="Path_135" data-name="Path 135" d="M412.484,239.61s-6.194-1.542-8.1-6.945a8.533,8.533,0,0,0-5.411,2.466s-.236,5.854,4.024,9.223Z" transform="translate(-272.332 -191.27)" fill="#fff"/>
        </g>
      </g>
      <path id="Path_136" data-name="Path 136" d="M466.171,247.2s-9.381,37.257-33.989,51.127L459.349,324.8s38.23-24.467,42.829-70.8Z" transform="translate(-140.347 -166.274)" fill="#fff"/>
      <path id="Path_137" data-name="Path 137" d="M440.521,258.413s7.268-2.461,9.944-4.448a2.374,2.374,0,0,1,.865,3.021c-.818,2.031-11.393,8.233-11.393,8.233Z" transform="translate(-127.017 -154.653)" fill="#ffcda9"/>
    </g>
    <path id="Path_138" data-name="Path 138" d="M526.367,261.622c-1.806,4.2-6.1,8.1-9.59,8.69s-4.854-2.333-3.048-6.537,6.1-8.092,9.59-8.687S528.173,257.421,526.367,261.622Z" transform="translate(370.812 187.111)" fill="#0083ff" opacity="0.23"/>
    <g id="Group_57" data-name="Group 57" transform="translate(297.23 521.584)">
      <path id="Path_139" data-name="Path 139" d="M379.28,310.021c3.589,3.929,5.547,15.515-11.684,19.681-20.622,4.984-35.626,13.889-45.08,42.7l-10.047-1.071s-4.8-34.7,38.369-60.057C363.442,303.87,373.358,303.536,379.28,310.021Z" transform="translate(-271.306 -247.811)" fill="#003591"/>
      <path id="Path_140" data-name="Path 140" d="M321.605,332.522s3.034,3.407,3.6,4.905c0,0,4.011,7.146,4.554,8.291,0,0-1.15,1.563-2.844-.1a25.169,25.169,0,0,1-3.228-4.228,19.49,19.49,0,0,0,.685,5.7c.78,2.143,2.2,6.42,1.6,7.711s-1.675.277-1.675.277-2.173-6.567-2.651-7.973c-.421-1.234-.835-.734-.835-.734s.759,8.027.892,9.465-.612,2.053-1.887,1.735c0,0-.432-4.28-.93-6.885-.171-.908-.2-4.092-1.21-3.839,0,0-.068,6.945.063,8.119a1.146,1.146,0,0,1-1.865,1.161l-.639-9.43s-.169-.65-.555-.4c-.348.226-1.471,4.5-1.474,4.987s-.131,2.012-1.349,1.729c0,0-.4-.158-.3-1.588s.359-8.228.359-8.228a20.857,20.857,0,0,1,1.819-9.071c2.124-4.617,4.155-4.682,1.531-3.448l2.643.821Z" transform="translate(-272.622 -205.568)" fill="#ffcda9"/>
      <path id="Path_141" data-name="Path 141" d="M312.119,336.581l11.235.244.528-7.092-11.293-.558Z" transform="translate(-271.635 -206.975)" fill="#004fa9"/>
      <g id="Group_56" data-name="Group 56">
        <g id="Group_50" data-name="Group 50" transform="translate(50.181)">
          <g id="Group_49" data-name="Group 49" transform="translate(14.87)">
            <g id="Group_48" data-name="Group 48">
              <g id="Group_47" data-name="Group 47">
                <g id="Group_46" data-name="Group 46">
                  <g id="Group_45" data-name="Group 45">
                    <path id="Path_142" data-name="Path 142" d="M347.358,291.713a2.419,2.419,0,1,1-2.292-2.54A2.414,2.414,0,0,1,347.358,291.713Z" transform="translate(-284.419 -275.75)" fill="#131637"/>
                    <path id="Path_143" data-name="Path 143" d="M384.775,297.655s-3.1-15.037-17.731-13.277c0,0-5.71,2.48-12.954,14.346,1.37,4.209-4,3.26-4.829,7.6-3.725,19.49-9.772,40.164-23.3,55.263-.22.247-.46.465-.688.7-1.308,2.423-2.681,4.81-4.117,7.138,2.847,3.366,7.692,6.281,16.062,6.572,11.882-18.792,19.447-39.857,19.447-39.857l10.469-13.615,17.644-14.213S390.559,301.549,384.775,297.655Z" transform="translate(-321.154 -284.234)" fill="#131637"/>
                    <path id="Path_144" data-name="Path 144" d="M347.216,291.746c-.014.177,3.418,9.373,2.521,15.928l-7.374-1.4Z" transform="translate(-284.695 -271.321)" fill="#ff907d"/>
                    <path id="Path_145" data-name="Path 145" d="M364.6,290.949s3.856,14.278-6.817,29.663l-9.751-3.475L345.458,329l-12.965-2.817,3-13.791a14.544,14.544,0,0,0,7.913-9.835s-6.58-1.854-4.682-7.777c1.213-3.771,6.8-3.317,7.622.906l-.848,3.891a5.125,5.125,0,0,0,3.391-3.105,22.712,22.712,0,0,0,8.851-1.281C364.6,292.7,364.6,290.949,364.6,290.949Z" transform="translate(-301.661 -272.691)" fill="#ffcda9"/>
                    <path id="Path_146" data-name="Path 146" d="M341.827,297.1l6.113,2.216a50.6,50.6,0,0,1-2.578,5.71C339.647,302.615,341.827,297.1,341.827,297.1Z" transform="translate(-286.317 -262.115)" fill="#fff"/>
                  </g>
                  <path id="Path_147" data-name="Path 147" d="M355.667,302.414h0c-6.673-1.449-13.96,2.757-14.487,9.566-3.214,41.537-19.8,87.332-19.8,87.332l42.353-5.8s1.474-37.339,2.89-39.895,12.413-4.769,13.957-15.186L366.313,311.08A15.175,15.175,0,0,0,355.667,302.414Z" transform="translate(-320.771 -253.472)" fill="#fff"/>
                  <path id="Path_148" data-name="Path 148" d="M329.171,304.235a4.957,4.957,0,1,0,5.2-4.7A4.956,4.956,0,0,0,329.171,304.235Z" transform="translate(-307.383 -257.935)" fill="#131637"/>
                </g>
              </g>
            </g>
          </g>
          <path id="Path_149" data-name="Path 149" d="M376.446,284.306s-14.251-1.659-20.529,19.651C343.86,344.89,288.173,356.8,332.638,408.414c0,0,14.224-24.423,13.394-38.182,0,0,10.439-15.972,8.375-27.868,0,0,13.62-1.2,9.979-18.5-4.737-13.15,6.863-26.8,6.863-26.8l11.154-5.278Z" transform="translate(-315.685 -284.163)" fill="#131637"/>
        </g>
        <g id="Group_54" data-name="Group 54" transform="translate(0 45.356)">
          <g id="Group_53" data-name="Group 53">
            <g id="Group_52" data-name="Group 52" transform="translate(0 94.2)">
              <path id="Path_150" data-name="Path 150" d="M360.847,388.33l7.071,6.617L382.052,378.4l-15.059,8.739Z" transform="translate(-187.868 -261.909)" fill="#000f1f"/>
              <g id="Group_51" data-name="Group 51">
                <path id="Path_151" data-name="Path 151" d="M305.05,374.978l-7.82,6.5,18.394,22.988-6.726-24.44Z" transform="translate(-297.23 -267.794)" fill="#000f1f"/>
                <path id="Path_152" data-name="Path 152" d="M303.987,447.78l82.478-26.144L398.438,376l-41.186-40.433,7.937,68.856s-31.2,7.635-65.1,38.347Z" transform="translate(-292.318 -335.547)" fill="#00217a"/>
                <path id="Path_153" data-name="Path 153" d="M322.434,338.273l8.029,6.958,31.384,27.052-2.95,11.238c-26.022-11.695-36.863-40.988-37.513-45.406C321.243,337.158,322.434,338.273,322.434,338.273Z" transform="translate(-255.727 -331.831)" fill="#001467"/>
                <path id="Path_154" data-name="Path 154" d="M320.449,335.559a60.2,60.2,0,0,0,35.1,42.168c30.337,13.144,34.138,14.142,34.138,14.142S400.45,431,430.869,462.522l5.571-1.732-29.083-86.574L365.08,336.073Z" transform="translate(-257.315 -335.559)" fill="#003591"/>
                <path id="Path_155" data-name="Path 155" d="M320.885,339.628l43.519-3.88s-21.07,11.839-41.458,10.189C321.35,342.6,320.656,339.9,320.885,339.628Z" transform="translate(-256.639 -335.234)" fill="#002460"/>
              </g>
            </g>
            <path id="Path_156" data-name="Path 156" d="M370.161,322.1c.209,58.716-23.575,84.357-23.575,84.357s-21-2.613-27.457-16.225c0,0,16.429-26.6,20.983-51.543,0,0,7.953-15.817,8.375-27.868,0,0,6.882-2.015,9.9-8.136,0,0,6.629-.859,11.273,3.586C369.658,306.276,370.118,310.235,370.161,322.1Z" transform="translate(-259.585 -297.98)" fill="#001f47"/>
            <path id="Path_157" data-name="Path 157" d="M337.957,303.741s3.7,2.29,1.542,7.627l-1.6-3.059Z" transform="translate(-227.31 -296.057)" fill="#003c9a"/>
            <path id="Path_158" data-name="Path 158" d="M338.49,306.546l12.668,24.29S353.4,312.607,338.49,306.546Z" transform="translate(-226.301 -291.235)" fill="#0083ff"/>
            <path id="Path_159" data-name="Path 159" d="M334.31,300.915a41.529,41.529,0,0,1,11.276,6.153l.016,6.1s-7.687-5.367-12.179-6.488Z" transform="translate(-235.01 -300.915)" fill="#f5fdff"/>
          </g>
        </g>
        <g id="Group_55" data-name="Group 55" transform="translate(87.931 57.039)">
          <path id="Path_160" data-name="Path 160" d="M374.2,309.529s-9.378,37.26-33.989,51.127l27.167,26.468s38.233-24.464,42.829-70.8Z" transform="translate(-311.265 -297.79)" fill="#fff"/>
          <path id="Path_161" data-name="Path 161" d="M333.51,308.157c3.725-3.9,15.311-6.694,20.728,10.455,6.474,20.518,16.535,35.082,46.339,42.646l-.383,10.24s-34.785,7.274-63.439-34.647C328.387,324.613,327.356,314.6,333.51,308.157Z" transform="translate(-329.569 -305.212)" fill="#003591"/>
          <path id="Path_162" data-name="Path 162" d="M357.2,331.667s3.937-3.043,5.612-3.543c0,0,8.081-3.82,9.373-4.326,0,0,1.61,1.373-.329,3.089a27.331,27.331,0,0,1-4.851,3.19s3.994-.28,6.458-.631c2.575-.367,1.9,2.948-.394,3.967-1.137,4.307-4.992,9.609-4.992,9.609a22.8,22.8,0,0,1-9.732-2.667c-4.862-2.667-4.78-4.881-3.633-1.933l1.093-2.809Z" transform="translate(-287.465 -273.26)" fill="#ffcda9"/>
          <path id="Path_163" data-name="Path 163" d="M361.109,338.592l1.123-12.207-7.677-1.115-1.468,12.244Z" transform="translate(-289.138 -270.73)" fill="#004fa9"/>
        </g>
      </g>
    </g>
    <g id="Group_60" data-name="Group 60" transform="translate(1039.302 687.122)">
      <g id="Group_59" data-name="Group 59" transform="translate(1.55 56.017)">
        <g id="Group_58" data-name="Group 58">
          <path id="Path_164" data-name="Path 164" d="M618.912,371.642l-4.13,2.455c-3.57-3.306-11.17-5.593-19.972-5.593s-16.4,2.287-19.972,5.593l-4.128-2.314,2.1,13.313h.005c1.281,4.9,10.634,8.7,21.989,8.7s20.706-3.8,21.987-8.7h.008Z" transform="translate(-570.711 -360.92)" fill="#b0e6ff"/>
          <path id="Path_165" data-name="Path 165" d="M572.795,373.155v5.169s3.429,3.23,11.782,3.7v-5.164S577.741,376.361,572.795,373.155Z" transform="translate(-567.128 -352.925)" fill="#beefff"/>
          <path id="Path_166" data-name="Path 166" d="M585.226,375.443l-.454,5.686a14.115,14.115,0,0,0,4.864-2.934l.721-5.392A20.012,20.012,0,0,1,585.226,375.443Z" transform="translate(-546.539 -353.53)" fill="#beefff"/>
          <path id="Path_167" data-name="Path 167" d="M618.912,376.436c0,5.925-10.792,10.727-24.1,10.727s-24.1-4.8-24.1-10.727,10.789-10.721,24.1-10.721S618.912,370.517,618.912,376.436Z" transform="translate(-570.711 -365.715)" fill="#d4faff"/>
          <path id="Path_168" data-name="Path 168" d="M612.776,374.981c0,5-9.109,9.052-20.342,9.052s-20.341-4.052-20.341-9.052,9.106-9.052,20.341-9.052S612.776,369.983,612.776,374.981Z" transform="translate(-568.335 -365.347)" fill="#a0d8ff"/>
        </g>
      </g>
      <path id="Path_169" data-name="Path 169" d="M579.507,387.211s-13.5-34.323-7.951-41.192,17.22,31.577,17.22,31.577-2.4-31.161,3.434-32.4,7.551,14.9,7.551,14.9,5.838-15.512,10.646-14.969-2.4,25.954-2.4,25.954,3.625-7.972,7.994-8.965-6.964,39.014-6.964,39.014l-13.9-1.944" transform="translate(-570.007 -345.114)" fill="#00ffea"/>
      <path id="Path_170" data-name="Path 170" d="M579.592,401.1s-10.362-5.465-9.386-10.721,10.61,1.822,10.61,1.822-18.109-24.208,8.019-38.614c23.575-13,18.9,35.354,18.9,35.354s5.321-6.58,10.713-5.164C625.406,385.61,612,401.1,612,401.1S600.69,402.115,579.592,401.1Z" transform="translate(-570.141 -334.363)" fill="#e70f40"/>
      <path id="Path_171" data-name="Path 171" d="M580.1,391.866s-9.375-5.678-6.708-8.813,8.048,2.629,8.048,2.629-8.625-21.024-2.491-26.394S591.029,378.1,591.029,378.1s.182-15.934,5.737-16.127,1.724,22.231,1.724,22.231,4.408-15.14,8.242-14.757-3.26,17.824-3.26,17.824,1.925-3.383,4.4-2.877-3.244,7.472-3.244,7.472S594.757,396.216,580.1,391.866Z" transform="translate(-565.381 -322.082)" fill="#b90235"/>
    </g>
    <g id="Group_67" data-name="Group 67" transform="translate(702.09 146.168)">
      <g id="Group_66" data-name="Group 66">
        <g id="Group_65" data-name="Group 65">
          <path id="Path_172" data-name="Path 172" d="M510.059,247.2V253h24.06l-16.312-5.8Z" transform="translate(-336.217 27.515)" fill="#000f1f"/>
          <g id="Group_61" data-name="Group 61" transform="translate(32.807 135.139)">
            <path id="Path_173" data-name="Path 173" d="M464.826,241.535l-6.636,7.708,21.944,19.626-10.677-22.99Z" transform="translate(-458.19 -117.361)" fill="#000f1f"/>
            <path id="Path_174" data-name="Path 174" d="M465.289,320.071l77.01-39.438,4.25-46.992-38.339-33.45-14.933-1.814.231,3.105,24.961,65.7s-29.505,12.7-57.854,48.6Z" transform="translate(-454.022 -191.553)" fill="#00217a"/>
            <path id="Path_175" data-name="Path 175" d="M472.627,198.378l13.364,4.465,39.908,30.8-1.047,11.575c-27.6-7.23-44.629-30.492-48.56-35.473C473.073,205.665,472.627,198.378,472.627,198.378Z" transform="translate(-433.372 -191.553)" fill="#001467"/>
            <path id="Path_176" data-name="Path 176" d="M474.262,195.868s5.109,29.935,33.584,46.73,32.126,18.253,32.126,18.253,5.84,40.156,32.123,75.2h8.764l-21.174-90.538L522.447,202.44Z" transform="translate(-430.562 -195.868)" fill="#003591"/>
            <path id="Path_177" data-name="Path 177" d="M474.325,196.639c.258-.245.514-.487.772-.723l47.242,6.442s-15.578,10.681-39.043,15.874A73.3,73.3,0,0,1,474.325,196.639Z" transform="translate(-430.453 -195.785)" fill="#002460"/>
          </g>
          <path id="Path_178" data-name="Path 178" d="M481.892,158.8c-.9-7.69,9.941-13.764,18.166-11.54,8.829,2.145,11.013,1.966,13.81-1.093,1.376,4.228,5.014,11.556-2.436,17.549.242.264-.141,2.893.106,3.141L500.531,178.9l-7.975,6.583-5.525-3.045a18.438,18.438,0,0,0-1.613-1.466C470.531,171.127,481.892,158.8,481.892,158.8Z" transform="translate(-391.767 -146.168)" fill="#131637"/>
          <path id="Path_179" data-name="Path 179" d="M492.444,153.777s3.687,3.323,4.383,11.722h-7.5Z" transform="translate(-371.855 -133.087)" fill="#ff746b"/>
          <path id="Path_180" data-name="Path 180" d="M497.331,160.5l-.879,5.621-7.719-1.646-1.367-3.975,1.482-3.149" transform="translate(-375.229 -126.941)" fill="#fff"/>
          <path id="Path_181" data-name="Path 181" d="M485.07,167.977v3.364a9.976,9.976,0,0,0,4.032-6.724s-5.846-1.2-4.856-5.463c.824-3.543,5.272-2.355,6.692.693v4.065s2.289-.06,2.692-7.853a15.1,15.1,0,0,0,6.393-.3c5.259-1.281,5.539-3.141,5.539-3.141s3.407,7.779,2.436,16.013h-6.27s.035,4.584,5.392,5.62a19.919,19.919,0,0,1-1.558,4.563h-9.226v6.735l-5.291,2.4-4.563,1.444L482.6,187.62l-1.438-4.951V171.34S483.273,171.229,485.07,167.977Z" transform="translate(-385.896 -135.073)" fill="#ffcda9"/>
          <g id="Group_62" data-name="Group 62" transform="translate(105.321 26.976)">
            <path id="Path_182" data-name="Path 182" d="M493.155,173.7s61.452,12.421,92.381-12.5l4.394,10.8s-41.224,35.791-103.285,27.765C486.646,199.755,479.715,185.14,493.155,173.7Z" transform="translate(-484.859 -147.315)" fill="#003591"/>
            <path id="Path_183" data-name="Path 183" d="M506.834,192.616c-2.238-20.1-15.787-26.683-15.787-26.683l-3.736,7.986,3.736,10.727,1.392,7.88A140.208,140.208,0,0,0,506.834,192.616Z" transform="translate(-480.643 -139.166)" fill="#002460" opacity="0.32"/>
            <path id="Path_184" data-name="Path 184" d="M521.885,169.967l9.794-9.723,26.8-4.155s2.186,5.316-16.747,7.752l2.078,5.525-4.827,8.258-10.534.829-2.167,2.311Z" transform="translate(-421.207 -156.089)" fill="#ffcda9"/>
          </g>
          <path id="Path_185" data-name="Path 185" d="M472.627,255.493s28.624,5.354,52.631-.253c0,0,2.485-47.2-2.415-69.378-2.567-11.611-4.8-19.365-10.292-20.709l-21.076.016c-1.574,0-4.84,4.032-6.007,5.082a54.477,54.477,0,0,0-5.835,5.841l-5.348,70.068Z" transform="translate(-400.565 -113.529)" fill="#fff"/>
          <path id="Path_186" data-name="Path 186" d="M482.421,167.849l7.887,4.8,4.649-6.389-6.081-1.107Z" transform="translate(-383.729 -113.529)" fill="#003591"/>
          <path id="Path_187" data-name="Path 187" d="M488.849,171.693s9.454,33.866,11.167,83.547l7.1,8.212s-5.378-50.766-7.1-67.309c-.824-7.932-3.372-28.915-12.706-30.99Z" transform="translate(-375.324 -113.529)" fill="#001f47"/>
          <path id="Path_188" data-name="Path 188" d="M500.864,172.64s20.4,52.674,6.368,101.645l-36.153-12.3L481.213,190.3s2.844-23.42,12.924-25.135Z" transform="translate(-403.227 -113.519)" fill="#001f47"/>
          <g id="Group_63" data-name="Group 63" transform="translate(0 56.198)">
            <path id="Path_189" data-name="Path 189" d="M533.32,191.077l-29.141-1.563.2-3.646a3.811,3.811,0,0,0-3.6-4.011l-37.393-2.009a3.814,3.814,0,0,0-4.011,3.6l-.2,3.646-1.525,28.393-.786,14.642a3.388,3.388,0,0,0,3.2,3.562l67.262,3.614,8.818-39.862C537.222,192.842,536.729,191.259,533.32,191.077Z" transform="translate(-427.672 -144.477)" fill="#ffb500"/>
            <path id="Path_190" data-name="Path 190" d="M524.152,241.138,458.7,237.62l3.224-60.009,72.877,3.914Z" transform="translate(-424.498 -148.312)" fill="#ff1c4d"/>
            <path id="Path_191" data-name="Path 191" d="M528.258,203.164l-42.7,47.173-39.437-35.611,43.245-47.89Z" transform="translate(-446.125 -166.836)" fill="#c14dff"/>
            <path id="Path_192" data-name="Path 192" d="M526.754,238.738,457.191,235l3.008-55.991,64.289,3.455,8.227,7.119Z" transform="translate(-427.101 -145.911)" fill="#3bfaff"/>
            <path id="Path_193" data-name="Path 193" d="M482.168,180.278l-.359,6.66,8.585.459Z" transform="translate(-384.78 -143.727)" fill="#b5faff"/>
            <path id="Path_194" data-name="Path 194" d="M529.759,190.885l-29.141-1.563.2-3.646a3.81,3.81,0,0,0-3.6-4.008l-37.393-2.012a3.814,3.814,0,0,0-4.008,3.6l-.2,3.644-1.523,28.4-.786,14.642a3.384,3.384,0,0,0,3.2,3.559l76.937,4.136,2.162-40.24A6.185,6.185,0,0,0,529.759,190.885Z" transform="translate(-433.788 -144.807)" fill="#fd0"/>
            <path id="Path_195" data-name="Path 195" d="M482.195,228.3s-14.724-26.876-3.725-47.214l-7.374-.81-5.922,9.9,1.281,17.386,3.5,12.706" transform="translate(-413.38 -143.728)" fill="#ffb500"/>
            <rect id="Rectangle_27" data-name="Rectangle 27" width="26.597" height="13.932" transform="matrix(0.999, 0.054, -0.054, 0.999, 27.556, 68.875)" fill="#ff0"/>
            <rect id="Rectangle_28" data-name="Rectangle 28" width="26.597" height="2.526" transform="translate(27.855 63.323) rotate(3.073)" fill="#ff0"/>
            <rect id="Rectangle_29" data-name="Rectangle 29" width="26.595" height="2.526" transform="matrix(0.999, 0.054, -0.054, 0.999, 28.155, 57.77)" fill="#ff0"/>
          </g>
          <path id="Path_196" data-name="Path 196" d="M471.905,194.038l7.265,10.608,13.861-.377-1.084,3.059-6.014,1.869-.372,2.14,10.836.828-5.956,3.505-6.028,1.97-11.816-1.2-2.929-5.1-2.738-10.43Z" transform="translate(-410.356 -63.875)" fill="#ffcda9"/>
          <g id="Group_64" data-name="Group 64" transform="translate(43.13 53.357)">
            <path id="Path_197" data-name="Path 197" d="M504.9,190.981s-51.473,8.114-15.657,62.227l-10.5,7.69s-52.2-71.686,27.681-95.106C506.423,165.791,512.63,178.408,504.9,190.981Z" transform="translate(-461.987 -165.791)" fill="#003591"/>
          </g>
          <path id="Path_198" data-name="Path 198" d="M484.795,166.665l8.378,6.539a10.827,10.827,0,0,0-3.086-8.93S488.648,166.665,484.795,166.665Z" transform="translate(-379.647 -115.04)" fill="#fff"/>
          <path id="Path_199" data-name="Path 199" d="M493.8,167.7s-6.365.492-9.884-4.03a8.521,8.521,0,0,0-4.353,4.046s1.621,5.631,6.727,7.48Z" transform="translate(-388.649 -116.077)" fill="#fff"/>
        </g>
      </g>
      <path id="Path_200" data-name="Path 200" d="M489.871,167.69l-.435.6-.669-.405c4.163,7.771,15.317,32.754-5.841,44.745v11.989l12.889.332S516.433,192.621,489.871,167.69Z" transform="translate(-382.86 -109.17)" fill="#0083ff"/>
    </g>
    <g id="Group_72" data-name="Group 72" transform="translate(510.992 610.008)">
      <g id="Group_68" data-name="Group 68" transform="translate(22.386 150.964)">
        <path id="Path_201" data-name="Path 201" d="M436.755,396.434c0,6.469-11.793,11.719-26.337,11.719s-26.34-5.251-26.34-11.719,11.793-11.722,26.34-11.722S436.755,389.96,436.755,396.434Z" transform="translate(-384.078 -350.892)" fill="#017abf" opacity="0.09"/>
        <path id="Path_202" data-name="Path 202" d="M436.317,380.442l-4.244,1c-3.9-3.616-12.206-6.115-21.826-6.115s-17.927,2.5-21.829,6.115l-4.239-1,2.031,31.142.008,0c1.395,5.357,11.616,9.514,24.029,9.514s22.628-4.157,24.029-9.514l.008,0Z" transform="translate(-383.906 -367.034)" fill="#b0e6ff"/>
        <path id="Path_203" data-name="Path 203" d="M387.409,387.054v5.164s4.212,2.3,11.782,2.238v-5.163A26.539,26.539,0,0,1,387.409,387.054Z" transform="translate(-378.352 -346.866)" fill="#beefff"/>
        <path id="Path_204" data-name="Path 204" d="M408.679,384.711v5.166s-4.155,2.831-11.621,3.744v-5.164A28.058,28.058,0,0,0,408.679,384.711Z" transform="translate(-361.764 -350.894)" fill="#beefff"/>
        <path id="Path_205" data-name="Path 205" d="M387.409,383.35v5.166s4.212,2.292,11.782,2.238v-5.166A26.541,26.541,0,0,1,387.409,383.35Z" transform="translate(-378.352 -353.233)" fill="#beefff"/>
        <path id="Path_206" data-name="Path 206" d="M436.755,383.993c0,6.474-11.793,11.722-26.337,11.722s-26.34-5.248-26.34-11.722,11.793-11.719,26.34-11.719S436.755,377.519,436.755,383.993Z" transform="translate(-384.078 -372.274)" fill="#d4faff"/>
        <path id="Path_207" data-name="Path 207" d="M427.333,381.935c0,5.052-9.21,9.15-20.565,9.15s-20.567-4.1-20.567-9.15,9.207-9.155,20.567-9.155S427.333,376.878,427.333,381.935Z" transform="translate(-380.428 -371.404)" fill="#a0d8ff"/>
      </g>
      <g id="Group_70" data-name="Group 70">
        <g id="Group_69" data-name="Group 69" transform="translate(0 120.013)">
          <path id="Path_208" data-name="Path 208" d="M423.636,404.79,375.85,360.931s-.408,9.816,6.077,15.02,11.717,3.372,12.524,11.532,6.3,12.823,11.127,13.533C415.44,402.468,417.73,407.738,423.636,404.79Z" transform="translate(-375.845 -360.823)" fill="#ffc400"/>
          <path id="Path_209" data-name="Path 209" d="M423.632,404.859,375.847,361s9.748-1.24,15.485,4.775,4.364,11.382,12.562,11.488,13.313,5.18,14.433,9.933C420.62,396.894,426.061,398.724,423.632,404.859Z" transform="translate(-375.842 -360.891)" fill="#ffb200"/>
        </g>
        <path id="Path_210" data-name="Path 210" d="M411.959,481.379V316.754s-19.05,16.094-17.652,37.148,13.8,27.694-.076,43.2-13.16,33.785-6.2,44.03C402.241,462.068,396.324,475.392,411.959,481.379Z" transform="translate(-363.236 -316.754)" fill="#00ffea"/>
        <path id="Path_211" data-name="Path 211" d="M393.766,481.379V316.754s19.047,16.094,17.652,37.148-13.8,27.694.071,43.2,13.163,33.785,6.205,44.03C403.481,462.068,409.4,475.392,393.766,481.379Z" transform="translate(-345.037 -316.754)" fill="#00eeeb"/>
      </g>
      <g id="Group_71" data-name="Group 71" transform="translate(48.287 62.308)">
        <path id="Path_212" data-name="Path 212" d="M400.818,442.223,434.9,339.669s-15.2,6.08-18.688,19.488,2.863,20.108-8.992,26.9S392.03,404.373,394.244,412.2C398.763,428.181,392.318,435.253,400.818,442.223Z" transform="translate(-393.604 -339.669)" fill="#e70f40"/>
        <path id="Path_213" data-name="Path 213" d="M396.258,442.221,430.345,339.67s8.535,13.968,3.306,26.794-14.332,14.395-8.9,26.93,1.2,23.77-5.251,28.714C406.308,432.2,407.238,441.726,396.258,442.221Z" transform="translate(-389.041 -339.667)" fill="#b90235"/>
      </g>
    </g>
    <g id="Group_91" data-name="Group 91" transform="translate(768.19 535.546)">
      <g id="Group_89" data-name="Group 89">
        <path id="Path_214" data-name="Path 214" d="M614.211,368.842,565.6,383.563l-13.5-44.57,50.7-15.356Z" transform="translate(-330.041 -230.459)" fill="#004fce"/>
        <path id="Path_215" data-name="Path 215" d="M618.026,361.369,575.9,389.75l-26.023-38.625,43.933-29.6Z" transform="translate(-333.857 -234.089)" fill="#ff1c4d"/>
        <path id="Path_216" data-name="Path 216" d="M590.862,330.4l-4.384,49.114-41.02-3.614,4.389-49.812Z" transform="translate(-341.462 -226.246)" fill="#c14dff"/>
        <g id="Group_73" data-name="Group 73" transform="translate(212.281 105.583)">
          <path id="Path_217" data-name="Path 217" d="M612.433,368.811l-51.865,14.984L548.5,342.05,596.437,328.2l7.836,3.117Z" transform="translate(-548.505 -328.199)" fill="#ffcb1c"/>
        </g>
        <path id="Path_218" data-name="Path 218" d="M581.641,364.717l-17.127-35.059-5.425.919" transform="translate(-318.029 -220.108)" fill="#ffb11c"/>
        <path id="Path_219" data-name="Path 219" d="M566.133,328.2l2.945,4.886,4.891-1.768Z" transform="translate(-305.92 -222.616)" fill="#fffa45"/>
        <g id="Group_82" data-name="Group 82" transform="translate(153.452 105.235)">
          <g id="Group_74" data-name="Group 74" transform="translate(16.711 3.206)">
            <path id="Path_220" data-name="Path 220" d="M565.684,336.681l1.292,1.99a35.887,35.887,0,0,1,4.592-2.379L570,333.878a10.188,10.188,0,0,0-14.071-2.991l-18.283,11.872a10.181,10.181,0,0,0-2.994,14.071l1.186,1.824a34.127,34.127,0,0,1,4.435-2.621l-1.305-2.007a5.031,5.031,0,0,1,1.479-6.95L558.734,335.2A5.03,5.03,0,0,1,565.684,336.681Z" transform="translate(-533.015 -329.25)" fill="#004aff"/>
          </g>
          <g id="Group_77" data-name="Group 77" transform="translate(16.568 28.146)">
            <g id="Group_75" data-name="Group 75">
              <path id="Path_221" data-name="Path 221" d="M546.151,341.157l-11.841,7.69-.837-1.292a3.178,3.178,0,0,1,.932-4.389l6.52-4.234a3.177,3.177,0,0,1,4.389.935Z" transform="translate(-532.962 -338.422)" fill="#003591"/>
            </g>
            <g id="Group_76" data-name="Group 76" transform="translate(1.837 2.283)">
              <path id="Path_222" data-name="Path 222" d="M542.9,339.412a1.128,1.128,0,0,0-.128-.15l-9.139,5.933a1.065,1.065,0,0,0,.084.18Z" transform="translate(-533.638 -339.262)" fill="#edf5f4"/>
            </g>
          </g>
          <g id="Group_80" data-name="Group 80" transform="translate(47.726 7.917)">
            <g id="Group_78" data-name="Group 78">
              <path id="Path_223" data-name="Path 223" d="M557.611,333.716,545.769,341.4l-.837-1.286a3.181,3.181,0,0,1,.933-4.391l6.52-4.234a3.179,3.179,0,0,1,4.389.935Z" transform="translate(-544.421 -330.983)" fill="#003591"/>
            </g>
            <g id="Group_79" data-name="Group 79" transform="translate(1.837 2.282)">
              <path id="Path_224" data-name="Path 224" d="M554.364,331.972a1.325,1.325,0,0,0-.128-.15l-9.139,5.936a1.2,1.2,0,0,0,.084.177Z" transform="translate(-545.097 -331.822)" fill="#edf5f4"/>
            </g>
          </g>
          <g id="Group_81" data-name="Group 81">
            <path id="Path_225" data-name="Path 225" d="M633.925,385.2l-65.588,42.584a12.476,12.476,0,0,1-17.258-3.671l-22.2-34.185a12.475,12.475,0,0,1,3.671-17.258l65.587-42.586a12.479,12.479,0,0,1,17.258,3.671l22.2,34.184A12.48,12.48,0,0,1,633.925,385.2Z" transform="translate(-526.869 -328.071)" fill="#0083ff"/>
          </g>
        </g>
        <g id="Group_88" data-name="Group 88">
          <g id="Group_84" data-name="Group 84" transform="translate(0 144.33)">
            <path id="Path_226" data-name="Path 226" d="M491.638,395.219l-7.071,6.62-14.132-16.545,15.056,8.739Z" transform="translate(-470.434 -268.796)" fill="#000f1f"/>
            <g id="Group_83" data-name="Group 83" transform="translate(3.959)">
              <path id="Path_227" data-name="Path 227" d="M546.333,399.746c-4.343,1.444-10.1.821-12.867-1.389s-1.485-5.177,2.858-6.624,10.1-.821,12.864,1.39S550.672,398.3,546.333,399.746Z" transform="translate(-368.546 -259.063)" fill="#0083ff" opacity="0.23"/>
              <path id="Path_228" data-name="Path 228" d="M486.216,399.746c-4.34,1.444-10.1.821-12.864-1.389s-1.487-5.177,2.855-6.624,10.1-.821,12.864,1.39S490.558,398.3,486.216,399.746Z" transform="translate(-471.89 -259.063)" fill="#0083ff" opacity="0.23"/>
              <path id="Path_229" data-name="Path 229" d="M545.656,381.869l7.82,6.5L535.085,411.36l6.723-24.44Z" transform="translate(-363.253 -274.682)" fill="#000f1f"/>
              <path id="Path_230" data-name="Path 230" d="M597.273,454.674,514.8,428.527,502.822,382.89l41.184-40.433-7.937,68.856s31.2,7.638,65.1,38.35Z" transform="translate(-418.716 -342.435)" fill="#00217a"/>
              <path id="Path_231" data-name="Path 231" d="M542.235,345.162l-8.029,6.964-31.384,27.05,2.948,11.241c26.024-11.7,36.866-40.988,37.513-45.406C543.424,344.047,542.235,345.162,542.235,345.162Z" transform="translate(-418.716 -338.72)" fill="#001467"/>
              <path id="Path_232" data-name="Path 232" d="M591.966,342.449a60.214,60.214,0,0,1-35.106,42.173c-30.334,13.144-34.135,14.139-34.135,14.139s-10.762,39.128-41.178,70.656l-5.574-1.732,29.086-86.573,42.277-38.143Z" transform="translate(-464.874 -342.449)" fill="#003591"/>
              <path id="Path_233" data-name="Path 233" d="M545.736,346.517l-43.519-3.877s21.068,11.836,41.458,10.188C545.268,349.487,545.965,346.784,545.736,346.517Z" transform="translate(-419.756 -342.121)" fill="#002460"/>
            </g>
          </g>
          <g id="Group_87" data-name="Group 87" transform="translate(87.127)">
            <g id="Group_86" data-name="Group 86" transform="translate(0 2.712)">
              <path id="Path_234" data-name="Path 234" d="M533.621,301.495c0-7.937-9.384-12.106-17.606-10.934-1.324,1.305-7.075,4.682-7.652,5.784-1.313,4.024,2.132,7.445-1.036,10.384-.538.582-1.118,1.1-1.694,1.618l10.357,14.422,7.877,6.5,5.455-3.01C545.585,314.008,533.621,301.495,533.621,301.495Z" transform="translate(-497.052 -290.366)" fill="#131637"/>
              <path id="Path_235" data-name="Path 235" d="M507.884,298.36s-3.638,2.695-4.326,9.5h7.4Z" transform="translate(-500.618 -276.624)" fill="#ff907d"/>
              <path id="Path_236" data-name="Path 236" d="M504.631,303.811l.557,4.712s6.058,1.637,6.858-1.852l.8-3.489L510.9,301.81" transform="translate(-498.774 -270.693)" fill="#fff"/>
              <path id="Path_237" data-name="Path 237" d="M527.3,316.466h0a9.836,9.836,0,0,1-3.984-6.637s5.773-1.188,4.8-5.395c-.813-3.5-5.207-2.322-6.607.691v4.008s-2.259-.057-2.657-7.752l-2.646-3.391-8.851-1.925s-3.649,9.607-2.608,17.622h6.191s-.492,4.062-5.634,4.712a28.4,28.4,0,0,0,1.762,5.449h9.109V331.7l.326,2.589h9.4l3.834-1.748,1.422-4.892V316.466S529.648,318.253,527.3,316.466Z" transform="translate(-498.892 -280.57)" fill="#ffcda9"/>
              <g id="Group_85" data-name="Group 85" transform="translate(28.44 49.109)">
                <path id="Path_238" data-name="Path 238" d="M516.245,333.538s41.115,4.6,56.971,32.325l7.263-7.45s-16.556-37.806-65.372-49.985C515.105,308.427,509.536,321.033,516.245,333.538Z" transform="translate(-512.936 -308.427)" fill="#f5fdff"/>
                <path id="Path_239" data-name="Path 239" d="M537.209,332.5s-.764,4.2-.487,5.667a27.116,27.116,0,0,1-.783,4.688l3.924-2.265s1.137,2.553,2.121,4.448c-.587.408-.949.644-2.08,1.376,1.107.745,5.321,1.727,5.321,1.727a6.182,6.182,0,0,0,1.384-3.2c.022-.169,4.3-4.761,4.3-4.761a15.544,15.544,0,0,0-5.4-9.99c-3.622-3.075-6.836-1.958-4.139-2.246l-1.708,1.939Z" transform="translate(-473.392 -274.877)" fill="#ffcda9"/>
                <path id="Path_240" data-name="Path 240" d="M549.166,332.383l-11.089,6.636-3.77-5.64,10.99-6.92Z" transform="translate(-476.199 -277.428)" fill="#cfe4ff"/>
              </g>
              <path id="Path_241" data-name="Path 241" d="M556.6,399.7s-1.874-55.345-7.619-74.7c-1.43-4.818-2.583-9.4-9.938-15.847l-18.958,1.7-.326-1.71c-6.945,6-10.471,17.7-11.1,24.964-1.653,19.11-5.533,54.763-6.186,65.593C518.824,405.871,540.441,405.1,556.6,399.7Z" transform="translate(-502.477 -258.084)" fill="#cfe4ff"/>
              <path id="Path_242" data-name="Path 242" d="M508.954,313.37s11.184-1.224,14.659-5.688a8.416,8.416,0,0,1,4.3,3.992,26.829,26.829,0,0,1-16.861,8.688Z" transform="translate(-491.342 -260.599)" fill="#fff"/>
              <path id="Path_243" data-name="Path 243" d="M515.761,310.3s-18.71,42.081,20.418,64.372l.16,15.428-11.366.851S484.826,345.408,515.761,310.3Z" transform="translate(-499.77 -256.1)" fill="#0083ff"/>
              <path id="Path_244" data-name="Path 244" d="M512.337,314.67l-4.685.745s.737-4.109,3.214-6.27Z" transform="translate(-493.581 -258.084)" fill="#003c9a"/>
            </g>
            <path id="Path_245" data-name="Path 245" d="M519.278,309.5s-20.923,3.486-15.648-20.132l17.3,2.907s9.438,6.863,3.548,4.37c-9.288-3.935,7.029,5.941,7.029,5.941Z" transform="translate(-501.963 -289.369)" fill="#131637"/>
          </g>
        </g>
      </g>
      <g id="Group_90" data-name="Group 90" transform="translate(23.878 62.473)">
        <path id="Path_246" data-name="Path 246" d="M563.034,315.565c-4.073-4.269-16.753-7.32-22.672,11.439-7.086,22.449-18.09,38.377-50.692,46.654l.416,11.2s38.054,7.953,69.4-37.907C568.641,333.568,569.766,322.618,563.034,315.565Z" transform="translate(-461.245 -312.345)" fill="#f5fdff"/>
        <path id="Path_247" data-name="Path 247" d="M509.036,341.287s-4.31-3.331-6.14-3.877c0,0-8.84-4.179-10.254-4.731,0,0-1.762,1.5.359,3.374a30.121,30.121,0,0,0,5.3,3.494,23.152,23.152,0,0,1-6.836-.343c-2.618-.748-7.826-2.086-9.316-1.27s-.19,2.02-.19,2.02,8,2.042,9.713,2.493c1.5.394.944.927.944.927s-9.62-.234-11.341-.272-2.4.9-1.909,2.393c0,0,5.131.158,8.274.533,1.1.13,4.886-.1,4.671,1.12,0,0-8.266.658-9.672.6a1.369,1.369,0,0,0-1.226,2.319l11.279-.024s.789.144.517.625c-.242.435-5.234,2.126-5.811,2.167s-2.385.324-1.944,1.754c0,0,.215.468,1.912.226s9.767-1.109,9.767-1.109a25,25,0,0,0,10.648-2.92c5.318-2.915,5.226-5.338,3.972-2.113l-1.2-3.075Z" transform="translate(-479.216 -277.39)" fill="#ffcda9"/>
        <path id="Path_248" data-name="Path 248" d="M490.057,348.86l-1.227-13.354,8.4-1.219,1.6,13.394Z" transform="translate(-462.689 -274.624)" fill="#cfe4ff"/>
      </g>
    </g>
    <g id="Group_96" data-name="Group 96" transform="translate(943.65 487.685)">
      <g id="Group_95" data-name="Group 95">
        <g id="Group_94" data-name="Group 94">
          <path id="Path_249" data-name="Path 249" d="M540.006,276.81a17.252,17.252,0,1,0,24.4,0A17.276,17.276,0,0,0,540.006,276.81Zm21.383,21.38a12.987,12.987,0,1,1,0-18.365A13,13,0,0,1,561.389,298.191Z" transform="translate(-534.963 -271.767)" fill="#0cf"/>
          <g id="Group_92" data-name="Group 92" transform="translate(0.709 0.709)">
            <path id="Path_250" data-name="Path 250" d="M563.451,300.255a16.539,16.539,0,1,1,0-23.39A16.558,16.558,0,0,1,563.451,300.255Zm-21.38-21.38a13.7,13.7,0,1,0,19.371,0A13.713,13.713,0,0,0,542.071,278.875Z" transform="translate(-535.224 -272.028)" fill="#3bfaff"/>
          </g>
          <g id="Group_93" data-name="Group 93" transform="translate(4.26 4.259)" opacity="0.28">
            <path id="Path_251" data-name="Path 251" d="M558.7,295.5a12.987,12.987,0,1,1,0-18.365A13,13,0,0,1,558.7,295.5Z" transform="translate(-536.53 -273.334)" fill="#3bfaff"/>
          </g>
          <path id="Path_252" data-name="Path 252" d="M540.323,277.13a12.987,12.987,0,0,0-3.171,13.147,12.972,12.972,0,0,0,18.523-15.387A13.007,13.007,0,0,0,540.323,277.13Z" transform="translate(-532.264 -269.071)" fill="#3bfaff" opacity="0.22"/>
        </g>
        <rect id="Rectangle_30" data-name="Rectangle 30" width="3.643" height="15.021" transform="translate(26.088 28.663) rotate(-45)" fill="#3bfaff"/>
        <path id="Path_253" data-name="Path 253" d="M561.049,297.92h0a3.32,3.32,0,0,1-4.679,0l-9.071-9.073a3.317,3.317,0,0,1,0-4.677h0a3.312,3.312,0,0,1,4.677,0l9.074,9.073A3.312,3.312,0,0,1,561.049,297.92Z" transform="translate(-515.415 -252.109)" fill="#0cf"/>
      </g>
      <path id="Path_254" data-name="Path 254" d="M545.363,276.936a2.487,2.487,0,1,1-2.485-2.485A2.485,2.485,0,0,1,545.363,276.936Z" transform="translate(-525.634 -267.154)" fill="#e3faff" opacity="0.34"/>
    </g>
  </g>
</svg>
